<?xml version="1.0" standalone="no"?>
<!DOCTYPE svg PUBLIC "-//W3C//DTD SVG 20010904//EN"
 "http://www.w3.org/TR/2001/REC-SVG-20010904/DTD/svg10.dtd">
<svg version="1.0" xmlns="http://www.w3.org/2000/svg"
 width="300.000000pt" height="300.000000pt" viewBox="0 0 300.000000 300.000000"
 preserveAspectRatio="xMidYMid meet">
<metadata>
Created by potrace 1.11, written by Peter Selinger 2001-2013
</metadata>
<g transform="translate(0.000000,300.000000) scale(0.100000,-0.100000)"
fill="#000000" stroke="none">
<path d="M790 1505 l0 -1226 498 3 c475 4 500 5 576 26 245 68 397 215 453
438 26 101 25 414 -1 499 -38 125 -104 209 -220 280 -36 22 -65 42 -66 45 0 3
26 25 59 48 68 50 108 97 145 171 89 175 88 453 -2 626 -63 119 -170 208 -309
256 -129 44 -214 51 -685 56 l-448 5 0 -1227z m817 759 c52 -19 98 -70 114
-126 17 -62 6 -206 -20 -256 -42 -82 -97 -106 -263 -115 l-78 -4 0 263 0 262
103 -5 c56 -2 121 -11 144 -19z m7 -964 c49 -15 121 -81 138 -128 17 -50 17
-254 -1 -307 -36 -107 -87 -134 -266 -142 l-125 -6 0 303 0 303 108 -6 c59 -3
124 -11 146 -17z"/>
</g>
</svg>
